<?xml version="1.0" encoding="utf-8"?>
<!-- Generator: Adobe Illustrator 19.0.0, SVG Export Plug-In . SVG Version: 6.00 Build 0)  -->
<svg version="1.1" id="Layer_1" xmlns="http://www.w3.org/2000/svg" xmlns:xlink="http://www.w3.org/1999/xlink" x="0px" y="0px"
	 viewBox="0 0 117.3 103.8" style="enable-background:new 0 0 117.3 103.8;" xml:space="preserve">
<style type="text/css">
	.st0{fill:#3EA4D0;}
</style>
<path id="_x30_8" class="st0" d="M117.2,47.5c-0.6-4.7-5.2-7.7-9.7-7.6c-0.2,0-0.4,0-0.7,0.1c-1.6-0.9-3.5-0.1-4.8,1
	c-0.3,0.3-0.5,0.5-0.8,0.8c-1.3,0.9-2.4,2-3.2,3.4c-2.4-0.1-4.9,0-7.3,0.1c2.1-3,6.3-6.4,7.5-8.3c2.9-4.5-3.7-7.1-6.4-3
	c-2.5,3.9-8,7.2-9.7,11.8c-5.3,0.4-10.6,1.1-15.9,1.7c2.4-4,4.8-8.1,7.1-12.3c4.1,0.2,8.5-1.1,12.3-1.4c4.5-0.4,5.6-8,0.4-7.6
	c-2.6,0.2-5.7,1.2-8.6,1.4c1.2-2.3,2.3-4.6,3.4-7c5.4,0.6,10.2-3.2,12.2-8c2-4.9-1.3-10.7-6.1-12.3c-1.7-0.6-3.5-0.6-5.1-0.1
	c-0.4-0.1-0.8-0.1-1.3,0c-5.2,0.8-9.1,5-8.9,10.4c0.1,2.7,1.2,5.1,2.9,6.9c-1.1,2.4-2.3,4.8-3.6,7.2c-1.6-3.6-1.4-9.9-2.3-12.5
	c-1.6-4.8-8.8-1.4-7.4,2.8c1.9,5.6,0.8,13.3,5.5,17.6c-2.4,4.4-5,8.8-7.6,13.1c-2.9-5.2-5.6-10.6-8.4-15.9c3-4.1,3.7-10,6.2-14.3
	c2.7-4.6-3.9-7.3-6.4-3c-1.8,3.1-2.7,6.6-4,9.9c-0.8-1.3-1.6-2.7-2.4-3.9c2.1-2.5,2.8-5.9,1.4-9.3c-1.5-3.6-5.1-7.3-8.9-8.4
	c-1.9-0.6-3.7-0.1-5.2,0.9c-0.9,0.2-1.8,0.7-2.5,1.4c-4.9,4.3-5.5,10.6-1.1,15.5c2.2,2.5,5.7,3.8,9,3.7c0.8,1.2,1.6,2.5,2.4,3.8
	c-3-0.7-6.3-1.8-7.6-2.1c-4.3-1-7.2,6.5-2.3,7.6c4.3,0.9,9.7,3.2,14.5,2.6c2.6,4.9,5.1,9.8,7.8,14.7c-5.1,0.2-10.2,0.3-15.4,0.1
	c-0.8-5.1-7-9-9.9-12.8c-2.9-3.8-9.4,1-6.7,4.5c2.1,2.8,4.8,5.1,7.1,7.8c-2.4-0.2-4.9-0.4-7.3-0.7C19,45.7,17.9,44,16,42.8
	c-2.1-1.4-5.1-1.1-7.5-0.4c-0.2,0-0.3,0-0.4,0.1c-0.8-0.1-1.7,0-2.6,0.6c-0.3,0.2-0.5,0.4-0.8,0.6c-1.3,0.7-2.5,1.8-3.4,3.1
	c-0.8,1.2-1.2,2.6-1.2,3.9c-0.6,3.1,1.2,6.2,3.6,8.1c0.4,0.3,0.8,0.5,1.2,0.6c3.2,2.4,7.2,3.3,11.2,2c2.7-0.9,4.4-3.1,5-5.7
	c2,0.2,3.9,0.3,5.9,0.4c-1.7,2.7-4.1,5.5-4.9,6.7c-2.7,4.6,3.9,7.2,6.4,3c1.8-3.1,4.4-6.1,6-9.4c5.5,0.2,10.9,0.2,16.4,0
	c0.6,0,1.1-0.1,1.7-0.1c-2.7,4.2-5.4,8.4-8.1,12.6c-1.2,0.1-2.3,0.2-3.1,0.2c-4.4,0.1-8.8,0.2-13.2,0.3c-4.5,0-5.6,7.6-0.4,7.6
	c3.9,0,7.7-0.1,11.6-0.2c-1.1,1.8-2.3,3.5-3.4,5.3c-1,0-2.1,0.1-3.1,0.3c-3.7,0.1-6,2-7.1,4.7c-0.7,1-1.3,2.1-1.6,3.3
	c-2.3,8.3,7.5,17,15.2,11.9c0.5-0.3,0.9-0.6,1.2-1c1.3-0.8,2.4-1.8,3.3-3c2.2-3.1,1.7-7.5,0.2-10.8c-0.5-1-1-1.8-1.7-2.5
	c1.2-1.9,2.4-3.8,3.7-5.7c1.8,2.8,3.5,5.9,3.7,9c0.4,5.2,7.9,3.6,7.6-0.9C57,81.5,54,76.7,51,71.8c2.5-3.9,5-7.8,7.5-11.8
	c3.2,4.7,6.6,9.3,9.8,14.1c-4.7,5.3-7.5,13.4-8.5,20.2c-0.8,5.1,6.9,3.5,7.6-0.9C68,89.3,69.7,84.8,72,81c0.7,1.5,1.4,3,2.2,4.5
	c-0.1,0.2-0.3,0.3-0.4,0.5c-2.5,3.6-2,7.8,0.7,11.1c0.4,0.5,0.9,0.9,1.3,1.3c2.3,2.5,6.2,2.7,9.5,1.7c4.6-1.4,7.9-5.9,7.3-10.7
	c-0.5-3.6-3.2-7-6.6-8.2c-1.9-0.7-3.7-0.7-5.5-0.2c-0.7-1.2-1.4-2.4-2.2-3.6c1.5,0.2,3,0.5,4.1,0.7c3,0.5,6,0.7,9,0.2
	c4.4-0.8,5.5-8.5,0.4-7.6c-5.9,1-12-1.5-17.4-0.2c-2.9-5.2-5.9-10.4-9.3-15.2c5.9-0.6,11.8-1.4,17.7-1.8c2.1,4.9,6.4,9,9.2,13.5
	c2.6,4.1,9.1-0.8,6.7-4.5c-2.1-3.3-4.7-6.2-6.8-9.4c1.7,0,3.4-0.1,5.1,0c0.5,1.7,1.3,3.2,2.5,4.4c2.1,2.1,4.5,2.6,6.9,2.2
	c1.6,0.1,3.2-0.1,4.7-0.7C115.7,57,117.8,52.2,117.2,47.5z"/>
</svg>
