<?xml version="1.0" encoding="utf-8"?>
<!-- Generator: Adobe Illustrator 19.0.0, SVG Export Plug-In . SVG Version: 6.00 Build 0)  -->
<svg version="1.1" id="Layer_1" xmlns="http://www.w3.org/2000/svg" xmlns:xlink="http://www.w3.org/1999/xlink" x="0px" y="0px"
	 viewBox="0 0 123.3 136.4" style="enable-background:new 0 0 123.3 136.4;" xml:space="preserve">
<style type="text/css">
	.st0{fill:#03A9F4;}
</style>
<path id="_x30_4" class="st0" d="M119.2,30.7c-6.3,3.2-12.5,6.6-18.6,10c0.1-0.6,0.3-1.2,0.4-1.8c0.1-0.5,0-1-0.2-1.5
	c-0.2-2.6-3.6-4.4-6.2-1.8c-2.3,2.3-4.8,7.3-4.7,11.1c-3.3,2-6.7,4-10,6c0.1-2.7,0.2-5.4,0.2-8c0-3.3-3-3.8-5.2-2.6
	c-0.4-2.3-2.4-3.9-4.9-1.8c-1.7,1.4-3.5,2.6-5.3,3.8c0-3.9,0-7.8,0-11.7c3.7-2.3,6.6-7.1,8.7-10.1c1.8-2.6-0.9-6.4-3.9-4.9
	c-1.7,0.8-3.3,1.9-4.9,2.9c0-5.7,0-11.4-0.1-17.2c-0.1-5.1-7.4-3.6-7.4,0.9c0.1,5.9,0.1,11.9,0.1,17.8c-0.3-0.2-0.6-0.4-0.9-0.7
	c-0.3-0.5-0.6-0.9-0.8-1.1c-2.6-3.7-8.5,0.5-6.8,4c0.1,0.6,0.3,1.1,0.7,1.6c0.3,0.3,0.6,0.6,0.9,0.9c1.9,2.6,4,5.3,6.8,6.6
	c0,2.9,0,5.8,0,8.7c-2.5-1.1-5.1-2-7.9-1.7c-1.8,0.2-3,1.6-3.5,3.2c-2.2-0.6-5.1,1-5.1,3.9c0.1,2,0.2,4,0.1,6
	c-3.1-1.7-6.1-3.4-9.1-5.3c0-0.9-0.1-1.7-0.3-2.5c-0.7-3.2-1.1-6.5-3-9.1c-2-2.7-6-1.4-6.8,1.7c-0.3,1.1-0.4,2.2-0.4,3.2
	c-5-3.3-9.9-6.8-14.7-10.6c-3.5-2.8-8.9,3.1-5.5,5.9c5,4,10.2,7.6,15.5,11.1c-0.2,0.1-0.5,0.1-0.7,0.2c-0.9,0.3-1.4,0.8-1.9,1.4
	c-3.2,1.3-4.6,6.6-0.5,7.1c4.6,0.6,10,0.6,14.2-1.7c3.5,2.1,7,4,10.5,6c-1.8,1.2-3.9,2.3-4.8,2.9c-0.5,0.4-0.9,0.9-1.2,1.4
	c-0.6,0.5-1.3,0.8-1.9,1.3c-2.4,2.2-1.2,4.9,1,5.6c0.1,0.5,0.5,1,1,1.5c1.7,1.2,4.7,2.4,6.6,4.1c-2.8,1.7-5.6,3.4-8.4,5
	c-3-3-9.9-1.4-13.5-2c-2.8-0.5-4.8,2.3-4.7,4.7c-0.4,1.4,0,2.9,1.6,3.6c0.7,0.3,2.3,0.6,3.8,0.9c-5.1,2.8-10.1,5.7-15.2,8.4
	c-4.3,2.2-1.2,8.4,3.3,6c5.7-2.9,11.2-6.1,16.8-9.3c-0.1,1.7-0.3,3.4,0,4.9c0.6,3.9,5.2,2.2,6.7,0.1c1.7-2.5,2.7-6.5,2.8-10.3
	c3-1.7,5.9-3.5,8.8-5.3c-0.1,2-0.5,4-0.5,5.8c0,1.6,0.8,2.6,1.9,3c-0.2,1.9,1,3.9,3.4,3.7c0.6,0.1,1.2,0.2,2-0.1
	c1.8-0.6,3.3-1.6,4.7-2.7c1.5-0.9,3-1.8,4.6-2.7c0,3.8,0,7.6,0,11.4c-0.9,0.5-1.7,1.2-2.4,1.9c-1.5,1.5-2.2,4-3.7,5.3
	c-1.5,1.3-2.7,3.3-1.6,5.2c0.5,1,1.6,1.5,2.7,1.5c0.9,0.6,2.2,0.7,3.6-0.4c0.5-0.4,1-0.8,1.5-1.2c0.1,6.1,0.1,12.3,0.3,18.4
	c0.1,5.1,7.5,3.6,7.4-0.9c-0.1-5.6-0.2-11.1-0.3-16.6c0.4,0.2,0.7,0.5,1.1,0.7c3.4,1.9,6.4-2.8,5.3-5.6c-1.1-3-3.5-6.5-6.6-8.2
	c0-3.6,0-7.2,0-10.8c1,0.6,2,1.2,3.1,1.8c1.1,0.6,2,1.2,2.7,1.5c1.9,0.9,3.9-0.2,4.9-1.8c2.1,0.6,5.3-1.7,5.7-4
	c0.2-1.5,0-3.7-0.1-5.8c3.3,1.8,6.5,3.6,9.8,5.4c0.5,2.7,1.7,5.6,2.6,7.8c0.1,0.4,0.4,0.6,0.6,0.9c0.7,1.6,2.4,1.7,3.9,1
	c1.5-0.5,2.8-1.8,2.9-3.5c0-0.1,0-0.2,0-0.3c4.9,3.1,9.7,6.2,14.4,9.6c3.6,2.6,9-3.2,5.5-5.9c-5.5-4-11.2-7.7-17-11.2
	c0.4-0.1,0.8-0.3,1.2-0.4c3.4-1.6,6.2-6.3,1.7-8.5c-4.3-2.1-9.9-0.3-13.3,2.7c-3.1-1.7-6.2-3.4-9.4-5c2.2-1.7,5.2-3,7.4-4.2
	c2.9-1.5,2.4-4.8,0.4-6c-0.1-0.2-0.3-0.4-0.5-0.7c1.3-1.8,1.5-4.5-0.8-5.4c-1.8-0.8-3.7-1.4-5.6-2.1c3-1.8,6-3.7,9.1-5.4
	c3.6,1.9,8.9,2.6,11.7,2.3c3.3-0.4,5.5-5.3,2.1-7.1c-1-0.6-2.2-0.9-3.3-1.1c5.5-3,10.9-6,16.5-8.8C124.8,35.6,123.9,28.3,119.2,30.7
	z M64.7,52.5c0.3-0.2,0.5-0.4,0.8-0.6c2.6-1,5.2-3.2,7.1-4.9c0,0.4,0,0.8,0.1,1.2c-0.1,3-0.2,5.9-0.1,8.9c-2.6,1.6-5.3,3.1-7.9,4.7
	C64.6,58.8,64.7,55.6,64.7,52.5z M72.5,78.9c-0.2,2.9,0.2,6,0.7,8.8c-1.1-0.6-2.2-1.1-3.3-1.7c-1.4-0.8-2.8-1.7-4.1-2.6
	c-0.4-0.3-0.8-0.6-1.3-0.9c0-2.6,0-5.2,0-7.8C67.3,76.1,69.9,77.5,72.5,78.9z M48.1,88.4c0.6-3,1.1-6.1,1.2-9.2
	c2.6-1.6,5.3-3.2,8-4.8c0,2.3,0,4.6,0,6.9c-2.8,1.4-4.7,3.9-6.9,5.9C49.6,87.7,48.8,88,48.1,88.4z M57.3,54.4c0,2.6,0,5.1,0,7.7
	c-3-1.6-5.9-3.2-8.8-4.8c0.5-3.1,0-6.5-0.2-9.7C51.3,49.9,54.8,51.5,57.3,54.4z M40,67.7c1.7-1,3.3-2.1,4.7-3.5
	c2.9,1.6,5.8,3.1,8.7,4.7c-1.8,1.1-3.6,2.1-5.4,3.2c-0.6-0.9-1.3-1.7-2.3-2.2c-0.9-0.4-2.1-0.5-3-0.9C41.7,68.6,40.8,68.2,40,67.7z
	 M75.7,71.9c-2.5-1.3-5-2.7-7.6-4.1c2.6-1.6,5.3-3.2,8-4.8c0.4,0.1,0.8,0.3,1.3,0.5c1.9,1.5,4,2.5,6.3,3C80.8,68,78,69.5,75.7,71.9z
	"/>
</svg>
