<?xml version="1.0" encoding="utf-8"?>
<!-- Generator: Adobe Illustrator 19.0.0, SVG Export Plug-In . SVG Version: 6.00 Build 0)  -->
<svg version="1.1" id="Layer_1" xmlns="http://www.w3.org/2000/svg" xmlns:xlink="http://www.w3.org/1999/xlink" x="0px" y="0px"
	 viewBox="0 0 125 132.5" style="enable-background:new 0 0 125 132.5;" xml:space="preserve">
<style type="text/css">
	.st0{fill:#3EA4D0;}
</style>
<g id="_x30_6">
	<g id="XMLID_17_">
		<path id="XMLID_19_" class="st0" d="M64.7,64.1c-1.3-0.5-2.3-1.5-3.9-1.2c-1.8,0.4-3.2,1.5-3.8,3.1c-1.3,1.5-1.8,3.7-0.2,5.2
			c0.3,0.3,0.7,0.6,1,0.8c1.1,1.4,3,1.7,4.6,0.8c0.4-0.1,0.7-0.3,1.1-0.6c0.8-0.6,1.5-1.3,2-2.2c0.2-0.3,0.3-0.6,0.4-1
			c0.1-0.1,0.1-0.2,0.1-0.3c0,0,0,0.1-0.1,0.1c0-0.1,0.1-0.2,0.1-0.2c0.1-0.3,0.2-0.4,0.2-0.4c0-0.1,0.1-0.1,0.1-0.2
			C66.7,66.7,66.3,64.7,64.7,64.1z"/>
		<path id="XMLID_18_" class="st0" d="M66.2,68.4c-0.1,0.2-0.1,0.4-0.2,0.5C66.1,68.6,66.2,68.4,66.2,68.4z"/>
	</g>
	<path id="XMLID_14_" class="st0" d="M123.1,99c-3.6-1.6-7-3.3-10.4-5.2c2.4-0.9,4.8-1.8,7.2-2.7c4.3-1.8,3.4-9.2-1.6-7.1
		c-4.5,1.8-9,3.3-13.4,5.3c-3.3-2-6.5-4.1-9.7-6.3c4.5-1.6,12.8-2.4,15.2-3.4c4.3-1.7,3.4-9.1-1.6-7.1c-5.7,2.3-15,1.9-20.3,5.9
		c-2.2-1.5-4.3-3.1-6.5-4.6c-0.4-0.3-0.9-0.5-1.4-0.6c0.7-3.7,0.5-8.2,0.1-12c3.5-1.5,6.9-3.2,10.1-5c5.9,2.4,11.6,5.1,18,5.9
		c4.4,0.6,7.2-6.9,2.3-7.6c-4.1-0.5-8-2-11.7-3.5c2-1.3,3.9-2.5,5.8-3.8c3.8,3.1,9.8,2.8,14,4.8c4.1,1.8,8.4-5.1,4-7.1
		c-3.2-1.5-6.8-1.8-10.1-2.9c2-1.3,4-2.6,6.1-3.8c4.3-2.5,1.1-8.9-3.4-6.2c-1.9,1.2-3.8,2.4-5.7,3.6c0.6-2.3,1.4-4.6,1.3-7.1
		c-0.1-5.2-7.6-3.6-7.6,0.9c0.1,4.1-1.9,7.9-1.8,11.6c-2.7,1.8-5.4,3.6-8.2,5.3c1.5-5.2,4.2-10,4.2-15.7c0-5.2-7.5-3.6-7.6,0.9
		c-0.1,6.9-4.2,12.8-5,19.6c-2.1,1.1-4.2,2.1-6.3,3c-0.3,0.1-0.5,0.2-0.7,0.4c-0.2-0.1-0.5-0.2-0.8-0.3c-3.5-1-6.6-5-10.1-7.4
		c-0.1-3.3-0.2-6.7-0.4-10c4-3.7,8.1-7.4,11.9-11.3c3.6-3.8-1.5-8.5-5.1-4.8c-2.3,2.5-4.8,4.8-7.3,7.1c-0.2-2.8-0.3-5.6-0.5-8.4
		c3.5-1.8,6.2-5.1,9.7-7.2c4.2-2.6,1.1-8.9-3.4-6.2c-2.2,1.3-4.3,4-6.6,5.6c-0.1-2.7-0.2-5.4-0.2-8.1c0-5.2-7.6-3.6-7.6,0.9
		c0,1.9,0.1,3.8,0.1,5.8c-1.8-1.9-3.5-4.2-4.5-5.1c-3.3-3.1-8.9,2.9-5.6,6c3.1,3,6.2,7.5,10.5,9c0.2,2.9,0.3,5.8,0.5,8.7
		c-2.9-3.2-5.8-6.5-9.6-8.8c-3.8-2.3-8.1,4.6-4,7c5.5,3.3,8.6,9.2,13.6,13.1c0.2,0.2,0.5,0.3,0.7,0.4c0.1,1.8,0.2,3.6,0.2,5.4
		c-4.5,2-8.6,5.4-12.1,9c-3.2-1.9-6.6-3.6-10-5.2c-0.1-5.3-1.1-10.5-2.4-15.8c-1.2-4.9-8.5-1.5-7.4,2.8c0.8,3.1,1.4,6.1,1.9,9.2
		c-2.2-1-4.3-2.1-6.4-3.3c1.6-3.7,0.3-9.6-0.3-13.2c-0.9-4.9-8.2-1.6-7.4,2.8c0.3,1.8,0.7,3.9,0.8,5.9c-2-1.5-3.9-3.2-5.6-5.1
		c-3-3.4-8.6,2.6-5.6,6c1.4,1.6,3,3.1,4.6,4.4c-1.4,0.5-2.9,1-4.2,1.8c-4.4,2.4-1.2,8.7,3.4,6.2c2.7-1.4,5.4-2.1,7.9-3.1
		c2.7,1.6,5.5,2.9,8.3,4.3c-3.4,1.4-7,2.6-10.6,2.9c-4.5,0.4-5.6,8.1-0.4,7.6c7-0.7,13.4-3.7,19.8-6.4c3.3,1.6,6.6,3.3,9.7,5.3
		c-0.4,4.5-0.3,9-0.3,13.6c-2.1,1.1-4.2,2.2-6.2,3.4c-3.9-3.9-13.8-3.4-17.7-5.8c-3.8-2.3-8.1,4.5-4,7c2.1,1.3,9.6,2.3,13.5,3.6
		c-1.9,1.1-3.8,2.2-5.8,3.2c-0.7,0.4-1.5,0.8-2.2,1.1c-0.5-0.6-1.2-1.1-2-1.2c-4.5-0.7-8.8-1.9-13.1-3.5c-4.2-1.5-8.5,5.4-4,7.1
		c3.1,1.1,6.2,2.1,9.4,2.9c-2.5,1.5-5,3-7.4,4.9c-3.8,3-0.8,9.5,3.4,6.2c2-1.6,4.1-2.9,6.3-4.2c-0.6,3-1.4,6.1-1.5,9.1
		c-0.2,5.2,7.4,3.6,7.6-0.9c0.2-4.3,1.3-8.4,1.9-12.6c1.9-1,3.8-1.9,5.7-2.9c1.5-0.8,2.9-1.6,4.3-2.4c-0.5,4.3-1.9,8.8-2.6,12.7
		c-1,5.2,6.4,5.7,7.2,1.1c1.1-5.9,2.7-12.1,2.8-18.2c2.8-1.7,5.6-3.3,8.5-4.7c0.7,0.6,1.4,1.1,2,1.7c2.9,3,5.6,5.5,8.8,6
		c0,1.5,0.1,3.1,0.1,4.6c-0.6,0.3-1.2,0.6-1.6,1.1c-3.8,4.3-7.2,10.7-12.6,13.2c-4.2,1.9-3.3,9.4,1.6,7.1c5.5-2.5,9.2-7.1,12.9-11.7
		c0.1,3.2,0.2,6.3,0.3,9.5c-4.6,2.6-8.2,8.9-11.4,12c-3.8,3.6,1.4,8.3,5.1,4.8c1.9-1.8,3.5-4,5.2-6c0.4-0.5,0.9-1,1.3-1.4
		c0,2.4,0.1,4.8,0.1,7.2c0,5.2,7.6,3.6,7.6-0.9c0-2.1-0.1-4.2-0.1-6.3c2.5,1.9,4.9,4.2,6.8,6.3c3,3.4,8.7-2.6,5.6-6
		c-3-3.4-7.9-8.1-12.7-9.9c0-0.7,0-1.4-0.1-2.2c2.1,1.9,4.4,3.6,6.9,5c3.9,2.1,8.3-4.8,4-7c-4.4-2.4-7.9-6.1-11.3-9.9
		c-0.1-3.7-0.2-7.4-0.2-11.1c3.9-1.8,8-4.3,11-7.4c2.5,1.8,5.1,3.6,7.6,5.4c-1.1,7.5,2.3,18.4,6,24.2c2.5,4.1,9.1-0.7,6.8-4.5
		c-2.4-3.9-4-9.2-4.7-14.2c2.9,2,5.8,3.8,8.8,5.7c1.1,4.3,0.7,8.8,0.7,13.3c0,5.2,7.5,3.6,7.6-0.9c0-2.5,0.1-5,0.1-7.6
		c3.1,1.7,6.2,3.3,9.5,4.7C123.2,107.8,127.5,100.9,123.1,99z M72.8,72.7c-0.3,3.7-7.9,7.3-10.9,8.5c-2.8,1.1-6.1-3.5-8.4-5.8
		c-3.6-3.7-2.8-9.2-2.2-14.3c2.1-2.4,6.7-7.7,10-7.9c0.5,0.3,1.1,0.5,1.8,0.5c3.7,1.9,6.1,5.1,9.7,6.9
		C73.2,64.5,73.1,68.7,72.8,72.7z"/>
</g>
</svg>
